<svg width="137" height="28" viewBox="0 0 137 28" fill="none" xmlns="http://www.w3.org/2000/svg">
<g id="Logo">
<g id="Group">
<path id="Vector" d="M15.6282 8.78485H19.609V27.214H15.6282V24.5605C14.1296 26.649 11.9799 27.6939 9.17768 27.6939C6.64673 27.6939 4.48448 26.754 2.69094 24.8742C0.897395 22.9944 0 20.7035 0 18C0 15.2966 0.896146 12.9756 2.69094 11.1071C4.48448 9.23979 6.64673 8.30615 9.17768 8.30615C11.9786 8.30615 14.1284 9.33853 15.6282 11.402V8.78485ZM5.63934 22.2195C6.74546 23.3382 8.1328 23.8968 9.80386 23.8968C11.4749 23.8968 12.8635 23.3382 13.9684 22.2195C15.0745 21.1022 15.6269 19.6948 15.6269 17.9988C15.6269 16.3027 15.0745 14.8966 13.9684 13.778C12.8623 12.6606 11.4737 12.1007 9.80386 12.1007C8.13405 12.1007 6.74421 12.6594 5.63934 13.778C4.53322 14.8966 3.98079 16.3027 3.98079 17.9988C3.98079 19.6948 4.53322 21.1009 5.63934 22.2195Z" fill="#233E60"/>
<path id="Vector_2" d="M49.0584 8.78545V27.2146H45.0776V12.6188H38.9595V27.2146H34.9787V12.6188H28.8232V27.2146H24.8424V12.6188H22.0415V8.78545H24.8424V8.41674C24.8424 5.88579 25.5486 3.96351 26.9622 2.64866C28.3745 1.33507 30.4455 0.763883 33.1727 0.935113V4.76842C30.273 4.49845 28.8232 5.71456 28.8232 8.41799V8.7867H34.9787V8.04929C34.9787 3.06112 37.7547 0.566406 43.309 0.566406C44.6114 0.566406 45.975 0.726388 47.3998 1.0451V4.69343C46.0975 4.4972 44.7339 4.39846 43.309 4.39846C41.8842 4.39846 40.7406 4.66968 40.0282 5.20962C39.3157 5.7508 38.9595 6.69694 38.9595 8.04804V8.78545H49.0584Z" fill="#233E60"/>
<path id="Vector_3" d="M52.9276 27.213V0.306152H56.9084V27.213H52.9276Z" fill="#233E60"/>
<path id="Vector_4" d="M64.5559 5.26455C64.0522 5.76825 63.4561 6.01947 62.7686 6.01947C62.0812 6.01947 61.4838 5.76825 60.9814 5.26455C60.4777 4.76086 60.2264 4.16468 60.2264 3.47726C60.2264 2.78984 60.4714 2.19366 60.9639 1.68997C61.4551 1.18628 62.0575 0.935059 62.7699 0.935059C63.4823 0.935059 64.0835 1.18753 64.5759 1.68997C65.0671 2.19366 65.3134 2.78984 65.3134 3.47726C65.3134 4.16468 65.0609 4.76086 64.5584 5.26455H64.5559ZM60.7776 27.2133V8.78415H64.7584V27.2133H60.7776Z" fill="#233E60"/>
<path id="Vector_5" d="M83.2252 8.78485H87.206V27.214H83.2252V24.5605C81.7266 26.649 79.5769 27.6939 76.7747 27.6939C74.2438 27.6939 72.0815 26.754 70.288 24.8742C68.4944 22.9944 67.597 20.7035 67.597 18C67.597 15.2966 68.4932 12.9756 70.288 11.1071C72.0815 9.23979 74.2438 8.30615 76.7747 8.30615C79.5757 8.30615 81.7254 9.33853 83.2252 11.402V8.78485ZM73.2364 22.2195C74.3425 23.3382 75.7298 23.8968 77.4009 23.8968C79.072 23.8968 80.4605 23.3382 81.5654 22.2195C82.6715 21.1022 83.224 19.6948 83.224 17.9988C83.224 16.3027 82.6715 14.8966 81.5654 13.778C80.4593 12.6606 79.0707 12.1007 77.4009 12.1007C75.7311 12.1007 74.3413 12.6594 73.2364 13.778C72.1303 14.8966 71.5778 16.3027 71.5778 17.9988C71.5778 19.6948 72.1303 21.1009 73.2364 22.2195Z" fill="#233E60"/>
<path id="Vector_6" d="M101.395 12.6182H96.8247V21.4647C96.8247 22.2271 96.996 22.7733 97.3409 23.1045C97.6846 23.437 98.1946 23.6207 98.8708 23.657C99.5469 23.6945 100.388 23.6882 101.395 23.6382V27.2128C98.3483 27.5815 96.1611 27.3165 94.835 26.4204C93.5089 25.5242 92.8452 23.8719 92.8452 21.4635V12.617H89.4543V8.7837H92.8452V4.80291L96.826 3.62305V8.7837H101.397V12.617L101.395 12.6182Z" fill="#233E60"/>
<path id="Vector_7" d="M106.666 19.6944C106.961 21.0955 107.636 22.1704 108.693 22.919C109.749 23.6689 111.039 24.0426 112.563 24.0426C114.676 24.0426 116.261 23.2815 117.317 21.7567L120.598 23.6739C118.78 26.3524 116.089 27.691 112.527 27.691C109.528 27.691 107.108 26.7761 105.265 24.945C103.423 23.1152 102.5 20.798 102.5 17.9971C102.5 15.1962 103.409 12.9414 105.227 11.0866C107.046 9.23186 109.379 8.30322 112.23 8.30322C114.934 8.30322 117.151 9.24936 118.883 11.1416C120.616 13.0339 121.482 15.3312 121.482 18.0346C121.482 18.4533 121.432 19.0057 121.334 19.6931H106.665L106.666 19.6944ZM106.629 16.451H117.465C117.194 14.9524 116.574 13.8226 115.604 13.0602C114.633 12.299 113.496 11.9178 112.194 11.9178C110.719 11.9178 109.491 12.3228 108.508 13.1339C107.526 13.9451 106.898 15.0512 106.629 16.451Z" fill="#233E60"/>
<path id="Vector_8" d="M127.085 13.8468C127.085 14.4542 127.425 14.9329 128.106 15.2841C128.787 15.6365 129.603 15.959 130.557 16.2527C131.511 16.5464 132.487 16.8477 133.488 17.1564C134.488 17.4638 135.324 18.035 135.994 18.8674C136.664 19.6998 137 20.751 137 22.0183C137 23.7869 136.318 25.1754 134.954 26.1828C133.59 27.1902 131.877 27.6939 129.812 27.6939C127.994 27.6939 126.434 27.3127 125.131 26.5515C123.829 25.7904 122.883 24.733 122.293 23.3819L125.721 21.3921C126.36 23.1619 127.724 24.0456 129.812 24.0456C131.901 24.0456 132.945 23.3569 132.945 21.9808C132.945 21.3909 132.608 20.9122 131.932 20.5435C131.256 20.1748 130.442 19.8436 129.488 19.5498C128.536 19.2561 127.559 18.9549 126.559 18.6462C125.559 18.3387 124.72 17.7851 124.045 16.9864C123.369 16.189 123.032 15.1754 123.032 13.9455C123.032 12.2494 123.677 10.8859 124.966 9.85472C126.256 8.82234 127.86 8.30615 129.776 8.30615C131.299 8.30615 132.657 8.64361 133.849 9.31978C135.04 9.99596 135.956 10.9358 136.595 12.1395L133.24 14.0192C132.601 12.6182 131.447 11.9182 129.776 11.9182C129.013 11.9182 128.376 12.082 127.86 12.4094C127.344 12.7369 127.086 13.2168 127.086 13.8468H127.085Z" fill="#233E60"/>
</g>
<g id="Group_2">
<path id="Vector_9" d="M15.6282 8.78485H19.609V27.214H15.6282V24.5605C14.1296 26.649 11.9799 27.6939 9.17768 27.6939C6.64673 27.6939 4.48448 26.754 2.69094 24.8742C0.897395 22.9944 0 20.7035 0 18C0 15.2966 0.896146 12.9756 2.69094 11.1071C4.48448 9.23979 6.64673 8.30615 9.17768 8.30615C11.9786 8.30615 14.1284 9.33853 15.6282 11.402V8.78485ZM5.63934 22.2195C6.74546 23.3382 8.1328 23.8968 9.80386 23.8968C11.4749 23.8968 12.8635 23.3382 13.9684 22.2195C15.0745 21.1022 15.6269 19.6948 15.6269 17.9988C15.6269 16.3027 15.0745 14.8966 13.9684 13.778C12.8623 12.6606 11.4737 12.1007 9.80386 12.1007C8.13405 12.1007 6.74421 12.6594 5.63934 13.778C4.53322 14.8966 3.98079 16.3027 3.98079 17.9988C3.98079 19.6948 4.53322 21.1009 5.63934 22.2195Z" fill="white"/>
<path id="Vector_10" d="M49.0584 8.78545V27.2146H45.0776V12.6188H38.9595V27.2146H34.9787V12.6188H28.8232V27.2146H24.8424V12.6188H22.0415V8.78545H24.8424V8.41674C24.8424 5.88579 25.5486 3.96351 26.9622 2.64866C28.3745 1.33507 30.4455 0.763883 33.1727 0.935113V4.76842C30.273 4.49845 28.8232 5.71456 28.8232 8.41799V8.7867H34.9787V8.04929C34.9787 3.06112 37.7547 0.566406 43.309 0.566406C44.6114 0.566406 45.975 0.726388 47.3998 1.0451V4.69343C46.0975 4.4972 44.7339 4.39846 43.309 4.39846C41.8842 4.39846 40.7406 4.66968 40.0282 5.20962C39.3157 5.7508 38.9595 6.69694 38.9595 8.04804V8.78545H49.0584Z" fill="white"/>
<path id="Vector_11" d="M52.9276 27.213V0.306152H56.9084V27.213H52.9276Z" fill="white"/>
<path id="Vector_12" d="M64.5559 5.26455C64.0522 5.76825 63.4561 6.01947 62.7686 6.01947C62.0812 6.01947 61.4838 5.76825 60.9814 5.26455C60.4777 4.76086 60.2264 4.16468 60.2264 3.47726C60.2264 2.78984 60.4714 2.19366 60.9639 1.68997C61.4551 1.18628 62.0575 0.935059 62.7699 0.935059C63.4823 0.935059 64.0835 1.18753 64.5759 1.68997C65.0671 2.19366 65.3134 2.78984 65.3134 3.47726C65.3134 4.16468 65.0609 4.76086 64.5584 5.26455H64.5559ZM60.7776 27.2133V8.78415H64.7584V27.2133H60.7776Z" fill="white"/>
<path id="Vector_13" d="M83.2252 8.78485H87.206V27.214H83.2252V24.5605C81.7266 26.649 79.5769 27.6939 76.7747 27.6939C74.2438 27.6939 72.0815 26.754 70.288 24.8742C68.4944 22.9944 67.597 20.7035 67.597 18C67.597 15.2966 68.4932 12.9756 70.288 11.1071C72.0815 9.23979 74.2438 8.30615 76.7747 8.30615C79.5757 8.30615 81.7254 9.33853 83.2252 11.402V8.78485ZM73.2364 22.2195C74.3425 23.3382 75.7298 23.8968 77.4009 23.8968C79.072 23.8968 80.4605 23.3382 81.5654 22.2195C82.6715 21.1022 83.224 19.6948 83.224 17.9988C83.224 16.3027 82.6715 14.8966 81.5654 13.778C80.4593 12.6606 79.0707 12.1007 77.4009 12.1007C75.7311 12.1007 74.3413 12.6594 73.2364 13.778C72.1303 14.8966 71.5778 16.3027 71.5778 17.9988C71.5778 19.6948 72.1303 21.1009 73.2364 22.2195Z" fill="white"/>
<path id="Vector_14" d="M101.395 12.6182H96.8247V21.4647C96.8247 22.2271 96.996 22.7733 97.3409 23.1045C97.6846 23.437 98.1946 23.6207 98.8708 23.657C99.5469 23.6945 100.388 23.6882 101.395 23.6382V27.2128C98.3483 27.5815 96.1611 27.3165 94.835 26.4204C93.5089 25.5242 92.8452 23.8719 92.8452 21.4635V12.617H89.4543V8.7837H92.8452V4.80291L96.826 3.62305V8.7837H101.397V12.617L101.395 12.6182Z" fill="white"/>
<path id="Vector_15" d="M106.666 19.6944C106.961 21.0955 107.636 22.1704 108.693 22.919C109.749 23.6689 111.039 24.0426 112.563 24.0426C114.676 24.0426 116.261 23.2815 117.317 21.7567L120.598 23.6739C118.78 26.3524 116.089 27.691 112.527 27.691C109.528 27.691 107.108 26.7761 105.265 24.945C103.423 23.1152 102.5 20.798 102.5 17.9971C102.5 15.1962 103.409 12.9414 105.227 11.0866C107.046 9.23186 109.379 8.30322 112.23 8.30322C114.934 8.30322 117.151 9.24936 118.883 11.1416C120.616 13.0339 121.482 15.3312 121.482 18.0346C121.482 18.4533 121.432 19.0057 121.334 19.6931H106.665L106.666 19.6944ZM106.629 16.451H117.465C117.194 14.9524 116.574 13.8226 115.604 13.0602C114.633 12.299 113.496 11.9178 112.194 11.9178C110.719 11.9178 109.491 12.3228 108.508 13.1339C107.526 13.9451 106.898 15.0512 106.629 16.451Z" fill="white"/>
<path id="Vector_16" d="M127.085 13.8468C127.085 14.4542 127.425 14.9329 128.106 15.2841C128.787 15.6365 129.603 15.959 130.557 16.2527C131.511 16.5464 132.487 16.8477 133.488 17.1564C134.488 17.4638 135.324 18.035 135.994 18.8674C136.664 19.6998 137 20.751 137 22.0183C137 23.7869 136.318 25.1754 134.954 26.1828C133.59 27.1902 131.877 27.6939 129.812 27.6939C127.994 27.6939 126.434 27.3127 125.131 26.5515C123.829 25.7904 122.883 24.733 122.293 23.3819L125.721 21.3921C126.36 23.1619 127.724 24.0456 129.812 24.0456C131.901 24.0456 132.945 23.3569 132.945 21.9808C132.945 21.3909 132.608 20.9122 131.932 20.5435C131.256 20.1748 130.442 19.8436 129.488 19.5498C128.536 19.2561 127.559 18.9549 126.559 18.6462C125.559 18.3387 124.72 17.7851 124.045 16.9864C123.369 16.189 123.032 15.1754 123.032 13.9455C123.032 12.2494 123.677 10.8859 124.966 9.85472C126.256 8.82234 127.86 8.30615 129.776 8.30615C131.299 8.30615 132.657 8.64361 133.849 9.31978C135.04 9.99596 135.956 10.9358 136.595 12.1395L133.24 14.0192C132.601 12.6182 131.447 11.9182 129.776 11.9182C129.013 11.9182 128.376 12.082 127.86 12.4094C127.344 12.7369 127.086 13.2168 127.086 13.8468H127.085Z" fill="white"/>
</g>
</g>
</svg>
