<svg width="186" height="43" viewBox="0 0 186 43" fill="none" xmlns="http://www.w3.org/2000/svg">
<g id="Logo">
<g id="Group">
<path id="Vector" d="M58.8904 11.5819H63.0594V30.8822H58.8904V28.1033C57.321 30.2906 55.0696 31.3848 52.135 31.3848C49.4844 31.3848 47.2199 30.4005 45.3416 28.4319C43.4633 26.4632 42.5234 24.0639 42.5234 21.2327C42.5234 18.4015 43.4619 15.9708 45.3416 14.0139C47.2199 12.0583 49.4844 11.0806 52.135 11.0806C55.0683 11.0806 57.3197 12.1617 58.8904 14.3228V11.5819ZM48.4294 25.6517C49.5878 26.8232 51.0407 27.4083 52.7908 27.4083C54.5408 27.4083 55.995 26.8232 57.1521 25.6517C58.3106 24.4815 58.8891 23.0076 58.8891 21.2314C58.8891 19.4552 58.3106 17.9826 57.1521 16.8111C55.9937 15.6409 54.5395 15.0545 52.7908 15.0545C51.042 15.0545 49.5865 15.6396 48.4294 16.8111C47.271 17.9826 46.6924 19.4552 46.6924 21.2314C46.6924 23.0076 47.271 24.4802 48.4294 25.6517Z" fill="#233E60"/>
<path id="Vector_2" d="M93.901 11.5822V30.8825H89.732V15.5967H83.3247V30.8825H79.1558V15.5967H72.7092V30.8825H68.5403V15.5967H65.6069V11.5822H68.5403V11.1961C68.5403 8.54546 69.2798 6.53231 70.7602 5.1553C72.2393 3.77961 74.4082 3.18142 77.2644 3.36075V7.37526C74.2276 7.09253 72.7092 8.36613 72.7092 11.1974V11.5835H79.1558V10.8112C79.1558 5.58725 82.0629 2.97461 87.8798 2.97461C89.2438 2.97461 90.6718 3.14215 92.164 3.47593V7.29673C90.8001 7.09122 89.372 6.98782 87.8798 6.98782C86.3877 6.98782 85.19 7.27186 84.4439 7.83732C83.6978 8.40409 83.3247 9.39496 83.3247 10.8099V11.5822H93.901Z" fill="#233E60"/>
<path id="Vector_3" d="M97.9531 30.8815V2.70264H102.122V30.8815H97.9531Z" fill="#233E60"/>
<path id="Vector_4" d="M110.131 7.89501C109.604 8.42251 108.979 8.68561 108.259 8.68561C107.539 8.68561 106.914 8.42251 106.388 7.89501C105.86 7.3675 105.597 6.74314 105.597 6.02322C105.597 5.30331 105.853 4.67894 106.369 4.15144C106.884 3.62394 107.515 3.36084 108.261 3.36084C109.007 3.36084 109.636 3.62525 110.152 4.15144C110.666 4.67894 110.924 5.30331 110.924 6.02322C110.924 6.74314 110.66 7.3675 110.134 7.89501H110.131ZM106.174 30.8813V11.581H110.343V30.8813H106.174Z" fill="#233E60"/>
<path id="Vector_5" d="M129.683 11.5819H133.852V30.8822H129.683V28.1033C128.114 30.2906 125.862 31.3848 122.928 31.3848C120.277 31.3848 118.013 30.4005 116.134 28.4319C114.256 26.4632 113.316 24.0639 113.316 21.2327C113.316 18.4015 114.255 15.9708 116.134 14.0139C118.013 12.0583 120.277 11.0806 122.928 11.0806C125.861 11.0806 128.112 12.1617 129.683 14.3228V11.5819ZM119.222 25.6517C120.381 26.8232 121.833 27.4083 123.583 27.4083C125.334 27.4083 126.788 26.8232 127.945 25.6517C129.103 24.4815 129.682 23.0076 129.682 21.2314C129.682 19.4552 129.103 17.9826 127.945 16.8111C126.786 15.6409 125.332 15.0545 123.583 15.0545C121.835 15.0545 120.379 15.6396 119.222 16.8111C118.064 17.9826 117.485 19.4552 117.485 21.2314C117.485 23.0076 118.064 24.4802 119.222 25.6517Z" fill="#233E60"/>
<path id="Vector_6" d="M148.712 15.5967H143.926V24.8614C143.926 25.6598 144.105 26.2318 144.466 26.5787C144.826 26.9269 145.36 27.1193 146.068 27.1573C146.776 27.1965 147.657 27.19 148.712 27.1376V30.8812C145.521 31.2673 143.231 30.9898 141.842 30.0513C140.453 29.1128 139.758 27.3824 139.758 24.8601V15.5954H136.207V11.5809H139.758V7.41191L143.927 6.17627V11.5809H148.714V15.5954L148.712 15.5967Z" fill="#233E60"/>
<path id="Vector_7" d="M154.232 23.0073C154.541 24.4746 155.248 25.6003 156.355 26.3844C157.461 27.1697 158.812 27.5611 160.408 27.5611C162.621 27.5611 164.281 26.764 165.387 25.1671L168.823 27.175C166.918 29.98 164.1 31.3819 160.37 31.3819C157.23 31.3819 154.695 30.4238 152.765 28.5062C150.835 26.5899 149.869 24.1631 149.869 21.2298C149.869 18.2964 150.821 15.9351 152.725 13.9926C154.63 12.0502 157.074 11.0776 160.059 11.0776C162.891 11.0776 165.213 12.0685 167.027 14.0502C168.841 16.032 169.748 18.4378 169.748 21.269C169.748 21.7075 169.696 22.2861 169.594 23.006H154.231L154.232 23.0073ZM154.193 19.6106H165.541C165.257 18.0412 164.608 16.8579 163.592 16.0595C162.575 15.2623 161.385 14.8631 160.022 14.8631C158.477 14.8631 157.19 15.2872 156.161 16.1367C155.133 16.9862 154.476 18.1446 154.193 19.6106Z" fill="#233E60"/>
<path id="Vector_8" d="M175.616 16.8831C175.616 17.5192 175.972 18.0206 176.686 18.3884C177.399 18.7575 178.254 19.0952 179.253 19.4028C180.251 19.7104 181.274 20.0259 182.322 20.3492C183.369 20.6712 184.245 21.2694 184.946 22.1411C185.648 23.0129 186 24.1137 186 25.4409C186 27.2931 185.286 28.7473 183.857 29.8023C182.429 30.8573 180.635 31.3848 178.472 31.3848C176.568 31.3848 174.934 30.9856 173.571 30.1885C172.207 29.3913 171.216 28.284 170.598 26.869L174.188 24.7852C174.857 26.6386 176.285 27.564 178.472 27.564C180.66 27.564 181.754 26.8428 181.754 25.4017C181.754 24.7839 181.401 24.2825 180.692 23.8964C179.984 23.5103 179.132 23.1634 178.133 22.8558C177.136 22.5482 176.112 22.2327 175.065 21.9094C174.018 21.5874 173.14 21.0076 172.433 20.1712C171.725 19.336 171.371 18.2745 171.371 16.9865C171.371 15.2103 172.047 13.7822 173.398 12.7023C174.749 11.6212 176.428 11.0806 178.435 11.0806C180.03 11.0806 181.452 11.434 182.7 12.1421C183.948 12.8503 184.907 13.8346 185.576 15.0951L182.063 17.0637C181.393 15.5964 180.185 14.8634 178.435 14.8634C177.636 14.8634 176.969 15.0349 176.428 15.3778C175.887 15.7208 175.618 16.2234 175.618 16.8831H175.616Z" fill="#233E60"/>
</g>
<g id="Group_2">
<path id="Vector_9" d="M58.8904 11.5819H63.0594V30.8822H58.8904V28.1033C57.321 30.2906 55.0696 31.3848 52.135 31.3848C49.4844 31.3848 47.2199 30.4005 45.3416 28.4319C43.4633 26.4632 42.5234 24.0639 42.5234 21.2327C42.5234 18.4015 43.4619 15.9708 45.3416 14.0139C47.2199 12.0583 49.4844 11.0806 52.135 11.0806C55.0683 11.0806 57.3197 12.1617 58.8904 14.3228V11.5819ZM48.4294 25.6517C49.5878 26.8232 51.0407 27.4083 52.7908 27.4083C54.5408 27.4083 55.995 26.8232 57.1521 25.6517C58.3106 24.4815 58.8891 23.0076 58.8891 21.2314C58.8891 19.4552 58.3106 17.9826 57.1521 16.8111C55.9937 15.6409 54.5395 15.0545 52.7908 15.0545C51.042 15.0545 49.5865 15.6396 48.4294 16.8111C47.271 17.9826 46.6924 19.4552 46.6924 21.2314C46.6924 23.0076 47.271 24.4802 48.4294 25.6517Z" fill="#233E60"/>
<path id="Vector_10" d="M93.901 11.5822V30.8825H89.732V15.5967H83.3247V30.8825H79.1558V15.5967H72.7092V30.8825H68.5403V15.5967H65.6069V11.5822H68.5403V11.1961C68.5403 8.54546 69.2798 6.53231 70.7602 5.1553C72.2393 3.77961 74.4082 3.18142 77.2644 3.36075V7.37526C74.2276 7.09253 72.7092 8.36613 72.7092 11.1974V11.5835H79.1558V10.8112C79.1558 5.58725 82.0629 2.97461 87.8798 2.97461C89.2438 2.97461 90.6718 3.14215 92.164 3.47593V7.29673C90.8001 7.09122 89.372 6.98782 87.8798 6.98782C86.3877 6.98782 85.19 7.27186 84.4439 7.83732C83.6978 8.40409 83.3247 9.39496 83.3247 10.8099V11.5822H93.901Z" fill="#233E60"/>
<path id="Vector_11" d="M97.9531 30.8815V2.70264H102.122V30.8815H97.9531Z" fill="#233E60"/>
<path id="Vector_12" d="M110.131 7.89501C109.604 8.42251 108.979 8.68561 108.259 8.68561C107.539 8.68561 106.914 8.42251 106.388 7.89501C105.86 7.3675 105.597 6.74314 105.597 6.02322C105.597 5.30331 105.853 4.67894 106.369 4.15144C106.884 3.62394 107.515 3.36084 108.261 3.36084C109.007 3.36084 109.636 3.62525 110.152 4.15144C110.666 4.67894 110.924 5.30331 110.924 6.02322C110.924 6.74314 110.66 7.3675 110.134 7.89501H110.131ZM106.174 30.8813V11.581H110.343V30.8813H106.174Z" fill="#233E60"/>
<path id="Vector_13" d="M129.683 11.5819H133.852V30.8822H129.683V28.1033C128.114 30.2906 125.862 31.3848 122.928 31.3848C120.277 31.3848 118.013 30.4005 116.134 28.4319C114.256 26.4632 113.316 24.0639 113.316 21.2327C113.316 18.4015 114.255 15.9708 116.134 14.0139C118.013 12.0583 120.277 11.0806 122.928 11.0806C125.861 11.0806 128.112 12.1617 129.683 14.3228V11.5819ZM119.222 25.6517C120.381 26.8232 121.833 27.4083 123.583 27.4083C125.334 27.4083 126.788 26.8232 127.945 25.6517C129.103 24.4815 129.682 23.0076 129.682 21.2314C129.682 19.4552 129.103 17.9826 127.945 16.8111C126.786 15.6409 125.332 15.0545 123.583 15.0545C121.835 15.0545 120.379 15.6396 119.222 16.8111C118.064 17.9826 117.485 19.4552 117.485 21.2314C117.485 23.0076 118.064 24.4802 119.222 25.6517Z" fill="#233E60"/>
<path id="Vector_14" d="M148.712 15.5967H143.926V24.8614C143.926 25.6598 144.105 26.2318 144.466 26.5787C144.826 26.9269 145.36 27.1193 146.068 27.1573C146.776 27.1965 147.657 27.19 148.712 27.1376V30.8812C145.521 31.2673 143.231 30.9898 141.842 30.0513C140.453 29.1128 139.758 27.3824 139.758 24.8601V15.5954H136.207V11.5809H139.758V7.41191L143.927 6.17627V11.5809H148.714V15.5954L148.712 15.5967Z" fill="#233E60"/>
<path id="Vector_15" d="M154.232 23.0073C154.541 24.4746 155.248 25.6003 156.355 26.3844C157.461 27.1697 158.812 27.5611 160.408 27.5611C162.621 27.5611 164.281 26.764 165.387 25.1671L168.823 27.175C166.918 29.98 164.1 31.3819 160.37 31.3819C157.23 31.3819 154.695 30.4238 152.765 28.5062C150.835 26.5899 149.869 24.1631 149.869 21.2298C149.869 18.2964 150.821 15.9351 152.725 13.9926C154.63 12.0502 157.074 11.0776 160.059 11.0776C162.891 11.0776 165.213 12.0685 167.027 14.0502C168.841 16.032 169.748 18.4378 169.748 21.269C169.748 21.7075 169.696 22.2861 169.594 23.006H154.231L154.232 23.0073ZM154.193 19.6106H165.541C165.257 18.0412 164.608 16.8579 163.592 16.0595C162.575 15.2623 161.385 14.8631 160.022 14.8631C158.477 14.8631 157.19 15.2872 156.161 16.1367C155.133 16.9862 154.476 18.1446 154.193 19.6106Z" fill="#233E60"/>
<path id="Vector_16" d="M175.616 16.8831C175.616 17.5192 175.972 18.0206 176.686 18.3884C177.399 18.7575 178.254 19.0952 179.253 19.4028C180.251 19.7104 181.274 20.0259 182.322 20.3492C183.369 20.6712 184.245 21.2694 184.946 22.1411C185.648 23.0129 186 24.1137 186 25.4409C186 27.2931 185.286 28.7473 183.857 29.8023C182.429 30.8573 180.635 31.3848 178.472 31.3848C176.568 31.3848 174.934 30.9856 173.571 30.1885C172.207 29.3913 171.216 28.284 170.598 26.869L174.188 24.7852C174.857 26.6386 176.285 27.564 178.472 27.564C180.66 27.564 181.754 26.8428 181.754 25.4017C181.754 24.7839 181.401 24.2825 180.692 23.8964C179.984 23.5103 179.132 23.1634 178.133 22.8558C177.136 22.5482 176.112 22.2327 175.065 21.9094C174.018 21.5874 173.14 21.0076 172.433 20.1712C171.725 19.336 171.371 18.2745 171.371 16.9865C171.371 15.2103 172.047 13.7822 173.398 12.7023C174.749 11.6212 176.428 11.0806 178.435 11.0806C180.03 11.0806 181.452 11.434 182.7 12.1421C183.948 12.8503 184.907 13.8346 185.576 15.0951L182.063 17.0637C181.393 15.5964 180.185 14.8634 178.435 14.8634C177.636 14.8634 176.969 15.0349 176.428 15.3778C175.887 15.7208 175.618 16.2234 175.618 16.8831H175.616Z" fill="#233E60"/>
</g>
<g id="Group_3">
<path id="Vector_17" d="M15.3288 24.4732C12.5186 24.4732 10.2188 22.1734 10.2188 19.3631V5.46606C10.2188 2.65576 12.5186 0.355957 15.3288 0.355957C18.1391 0.355957 20.4389 2.65576 20.4389 5.46606V19.3618C20.4389 22.1721 18.1391 24.4719 15.3288 24.4719V24.4732Z" fill="url(#paint0_linear_931_8756)"/>
<path id="Vector_18" d="M15.3288 43.0002C12.5186 43.0002 10.2188 40.7004 10.2188 37.8901V23.9944C10.2188 21.1841 12.5186 18.8843 15.3288 18.8843C18.1391 18.8843 20.4389 21.1841 20.4389 23.9944V37.8901C20.4389 40.7004 18.1391 43.0002 15.3288 43.0002Z" fill="url(#paint1_linear_931_8756)"/>
<path id="Vector_19" d="M5.1101 34.0236C2.29981 34.0236 0 31.7238 0 28.9135V15.0178C0 12.2075 2.29981 9.90771 5.1101 9.90771C7.92039 9.90771 10.2202 12.2075 10.2202 15.0178V28.9135C10.2202 31.7238 7.92039 34.0236 5.1101 34.0236Z" fill="url(#paint2_linear_931_8756)"/>
<path id="Vector_20" d="M25.5478 34.0236C22.7375 34.0236 20.4377 31.7238 20.4377 28.9135V15.0178C20.4377 12.2075 22.7375 9.90771 25.5478 9.90771C28.3581 9.90771 30.6579 12.2075 30.6579 15.0178V28.9135C30.6579 31.7238 28.3581 34.0236 25.5478 34.0236Z" fill="url(#paint3_linear_931_8756)"/>
<path id="Vector_21" d="M25.5478 20.1264C28.3701 20.1264 30.6579 17.8386 30.6579 15.0163C30.6579 12.1941 28.3701 9.90625 25.5478 9.90625C22.7256 9.90625 20.4377 12.1941 20.4377 15.0163C20.4377 17.8386 22.7256 20.1264 25.5478 20.1264Z" fill="#284AFF"/>
<path id="Vector_22" d="M5.1101 20.1264C7.93233 20.1264 10.2202 17.8386 10.2202 15.0163C10.2202 12.1941 7.93233 9.90625 5.1101 9.90625C2.28787 9.90625 0 12.1941 0 15.0163C0 17.8386 2.28787 20.1264 5.1101 20.1264Z" fill="#284AFF"/>
<path id="Vector_23" d="M15.3288 29.1045C18.1511 29.1045 20.4389 26.8166 20.4389 23.9944C20.4389 21.1721 18.1511 18.8843 15.3288 18.8843C12.5066 18.8843 10.2188 21.1721 10.2188 23.9944C10.2188 26.8166 12.5066 29.1045 15.3288 29.1045Z" fill="#284AFF"/>
<path id="Vector_24" d="M15.3288 10.5762C18.1511 10.5762 20.4389 8.28829 20.4389 5.46606C20.4389 2.64383 18.1511 0.355957 15.3288 0.355957C12.5066 0.355957 10.2188 2.64383 10.2188 5.46606C10.2188 8.28829 12.5066 10.5762 15.3288 10.5762Z" fill="#284AFF"/>
</g>
</g>
<defs>
<linearGradient id="paint0_linear_931_8756" x1="15.2074" y1="24.3788" x2="15.2074" y2="0.288939" gradientUnits="userSpaceOnUse">
<stop stop-color="#8FFEFF"/>
<stop offset="0.19" stop-color="#79D8FF"/>
<stop offset="0.45" stop-color="#5EA8FF"/>
<stop offset="0.68" stop-color="#4A85FF"/>
<stop offset="0.87" stop-color="#3E70FF"/>
<stop offset="1" stop-color="#3A69FF"/>
</linearGradient>
<linearGradient id="paint1_linear_931_8756" x1="-6454.87" y1="42.8927" x2="-6454.87" y2="18.8028" gradientUnits="userSpaceOnUse">
<stop stop-color="#8FFEFF"/>
<stop offset="0.19" stop-color="#79D8FF"/>
<stop offset="0.45" stop-color="#5EA8FF"/>
<stop offset="0.68" stop-color="#4A85FF"/>
<stop offset="0.87" stop-color="#3E70FF"/>
<stop offset="1" stop-color="#3A69FF"/>
</linearGradient>
<linearGradient id="paint2_linear_931_8756" x1="4.97678" y1="33.9128" x2="4.97678" y2="9.82296" gradientUnits="userSpaceOnUse">
<stop stop-color="#8FFEFF"/>
<stop offset="0.19" stop-color="#79D8FF"/>
<stop offset="0.45" stop-color="#5EA8FF"/>
<stop offset="0.68" stop-color="#4A85FF"/>
<stop offset="0.87" stop-color="#3E70FF"/>
<stop offset="1" stop-color="#3A69FF"/>
</linearGradient>
<linearGradient id="paint3_linear_931_8756" x1="25.3366" y1="33.9128" x2="25.3366" y2="9.82296" gradientUnits="userSpaceOnUse">
<stop stop-color="#8FFEFF"/>
<stop offset="0.19" stop-color="#79D8FF"/>
<stop offset="0.45" stop-color="#5EA8FF"/>
<stop offset="0.68" stop-color="#4A85FF"/>
<stop offset="0.87" stop-color="#3E70FF"/>
<stop offset="1" stop-color="#3A69FF"/>
</linearGradient>
</defs>
</svg>
