<svg width="20" height="20" viewBox="0 0 20 20" fill="none" xmlns="http://www.w3.org/2000/svg">
<g id="Frame">
<path id="Vector" d="M7.88077 2.39905H12.1013C12.4372 2.39905 12.7592 2.53245 12.9967 2.7699C13.2341 3.00736 13.3675 3.32941 13.3675 3.66522C13.3675 4.44878 13.0563 5.20024 12.5022 5.7543C11.9481 6.30836 11.1967 6.61963 10.4131 6.61963H9.569C8.78544 6.61963 8.03398 6.30836 7.47992 5.7543C6.92586 5.20024 6.61459 4.44878 6.61459 3.66522C6.61459 3.32941 6.74799 3.00736 6.98545 2.7699C7.2229 2.53245 7.54496 2.39905 7.88077 2.39905Z" stroke="#2F0062" stroke-width="1.45455" stroke-linecap="round" stroke-linejoin="round"/>
<path id="Vector_2" d="M3.22916 14.2148V13.3707C3.22916 11.5797 3.94062 9.8621 5.20704 8.59568C6.47346 7.32926 8.1911 6.6178 9.98209 6.6178C11.7731 6.6178 13.4907 7.32926 14.7571 8.59568C16.0235 9.8621 16.735 11.5797 16.735 13.3707V14.2148C16.735 15.1103 16.3793 15.9692 15.7461 16.6024C15.1129 17.2356 14.254 17.5913 13.3586 17.5913H6.60562C5.71013 17.5913 4.85131 17.2356 4.2181 16.6024C3.58489 15.9692 3.22916 15.1103 3.22916 14.2148Z" stroke="#2F0062" stroke-width="1.45455" stroke-linecap="round" stroke-linejoin="round"/>
<path id="Vector_3" d="M12.25 9.99805H8.875C8.57663 9.99805 8.29048 10.1166 8.07951 10.3276C7.86853 10.5385 7.75 10.8247 7.75 11.123C7.75 11.4214 7.86853 11.7076 8.07951 11.9185C8.29048 12.1295 8.57663 12.248 8.875 12.248H11.125C11.4234 12.248 11.7095 12.3666 11.9205 12.5776C12.1315 12.7885 12.25 13.0747 12.25 13.373C12.25 13.6714 12.1315 13.9576 11.9205 14.1685C11.7095 14.3795 11.4234 14.498 11.125 14.498H7.75" stroke="#2F0062" stroke-width="1.45455" stroke-linecap="round" stroke-linejoin="round"/>
<path id="Vector_4" d="M10 15.623V8.87305" stroke="#2F0062" stroke-width="1.45455" stroke-linecap="round" stroke-linejoin="round"/>
</g>
</svg>
