<svg width="20" height="17" viewBox="0 0 20 17" fill="none" xmlns="http://www.w3.org/2000/svg">
<g id="Camada_1" clip-path="url(#clip0_661_24189)">
<g id="Group">
<path id="Vector" d="M13.0521 13.1699C13.0521 13.8632 13.9869 14.4304 15.1529 14.4304C16.3188 14.4304 17.2537 13.8632 17.2537 13.1699C17.2537 12.4766 16.3188 11.9094 15.1529 11.9094C13.9869 11.9094 13.0521 12.4766 13.0521 13.1699Z" stroke="#2F0062" stroke-width="1.33333" stroke-linecap="round" stroke-linejoin="round"/>
<path id="Vector_2" d="M13.0521 13.1698V15.1761C13.0521 15.8694 13.9869 16.4366 15.1529 16.4366C16.3188 16.4366 17.2537 15.8694 17.2537 15.1761V13.1698" stroke="#2F0062" stroke-width="1.33333" stroke-linecap="round" stroke-linejoin="round"/>
</g>
<path id="Vector_3" d="M14.6693 3.47935C14.6693 4.27766 15.7512 4.91841 17.0747 4.91841C18.3982 4.91841 19.4801 4.26716 19.4801 3.47935C19.4801 2.69154 18.3982 2.04028 17.0747 2.04028C15.7512 2.04028 14.6693 2.69154 14.6693 3.47935Z" stroke="#2F0062" stroke-width="1.33333" stroke-linecap="round" stroke-linejoin="round"/>
<path id="Vector_4" d="M17.0651 14.2445C18.3886 14.2445 19.4705 13.5933 19.4705 12.8054V3.47778" stroke="#2F0062" stroke-width="1.33333" stroke-linecap="round" stroke-linejoin="round"/>
<path id="Vector_5" d="M14.6693 3.47778V7.57439C15.5306 8.67733 16.0243 10.0219 16.0243 11.4399" stroke="#2F0062" stroke-width="1.33333" stroke-linecap="round" stroke-linejoin="round"/>
<path id="Vector_6" d="M7.40821 1.17578H11.3578C11.6729 1.17578 11.9775 1.30183 12.1981 1.52242C12.4187 1.743 12.5447 2.04762 12.5447 2.36275C12.5447 3.09804 12.2506 3.80181 11.7359 4.31651C11.2212 4.83122 10.5174 5.12533 9.78215 5.12533H8.99434C8.25905 5.12533 7.55527 4.83122 7.04057 4.31651C6.52587 3.80181 6.23175 3.09804 6.23175 2.36275C6.23175 2.04762 6.3578 1.743 6.57839 1.52242C6.79897 1.30183 7.10359 1.17578 7.41872 1.17578H7.40821Z" stroke="#2F0062" stroke-width="1.33333" stroke-linecap="round" stroke-linejoin="round"/>
<path id="Vector_7" d="M11.4961 8.28516H8.33435C8.05074 8.28516 7.78814 8.4007 7.58856 8.58978C7.38898 8.78935 7.28394 9.05196 7.28394 9.33557C7.28394 9.61918 7.39949 9.88178 7.58856 10.0814C7.78814 10.2809 8.05074 10.386 8.33435 10.386H10.4352C10.7188 10.386 10.9814 10.5015 11.181 10.6906C11.3806 10.8902 11.4856 11.1528 11.4856 11.4364C11.4856 11.72 11.37 11.9826 11.181 12.1822C10.9814 12.3818 10.7188 12.4868 10.4352 12.4868H7.27344" stroke="#2F0062" stroke-width="1.33333" stroke-linecap="round" stroke-linejoin="round"/>
<path id="Vector_8" d="M9.388 13.5408V7.22778" stroke="#2F0062" stroke-width="1.33333" stroke-linecap="round" stroke-linejoin="round"/>
<g id="Group_2">
<path id="Vector_9" d="M5.28575 6.36189C4.84458 6.02576 4.16181 5.81567 3.39501 5.81567C2.07149 5.81567 0.989563 6.46693 0.989563 7.25474" stroke="#2F0062" stroke-width="1.33333" stroke-linecap="round" stroke-linejoin="round"/>
<path id="Vector_10" d="M0.989563 7.25842C0.989563 8.05674 2.07149 8.69749 3.39501 8.69749" stroke="#2F0062" stroke-width="1.33333" stroke-linecap="round" stroke-linejoin="round"/>
<path id="Vector_11" d="M0.989563 7.25842V11.8907C0.989563 12.6891 2.07149 13.3298 3.39501 13.3298" stroke="#2F0062" stroke-width="1.33333" stroke-linecap="round" stroke-linejoin="round"/>
</g>
<path id="Vector_12" d="M13.0521 15.1761V13.1698C13.0521 12.4765 13.9869 11.9093 15.1529 11.9093C15.447 11.9093 15.7306 11.9513 15.9827 12.0144V11.4366C15.9827 9.76648 15.321 8.15935 14.134 6.97238C12.947 5.78542 11.3399 5.12366 9.66973 5.12366C7.99957 5.12366 6.39244 5.78542 5.20548 6.97238C4.01851 8.15935 3.35675 9.76648 3.35675 11.4366V12.2244C3.35675 13.0648 3.69288 13.8631 4.28111 14.4618C4.86934 15.0501 5.67816 15.3862 6.51849 15.3862H12.8315C12.9155 15.3862 12.9995 15.3652 13.0836 15.3652C13.0731 15.3022 13.0521 15.2391 13.0521 15.1761Z" stroke="#2F0062" stroke-width="1.33333" stroke-linecap="round" stroke-linejoin="round"/>
<path id="Vector_13" d="M14.6693 4.85278V6.77504C14.6693 7.57335 15.7512 8.2141 17.0747 8.2141C18.3982 8.2141 19.4801 7.56285 19.4801 6.77504V4.85278" stroke="#2F0062" stroke-width="1.33333" stroke-linecap="round" stroke-linejoin="round"/>
<path id="Vector_14" d="M1.013 7.80591V9.72816C1.013 10.5265 2.0424 11.1672 3.36592 11.1672" stroke="#2F0062" stroke-width="1.33333" stroke-linecap="round" stroke-linejoin="round"/>
<path id="Vector_15" d="M15.9713 11.0202C16.297 11.1252 16.6751 11.1777 17.0638 11.1777C18.3873 11.1777 19.4692 10.5265 19.4692 9.73866V7.81641" stroke="#2F0062" stroke-width="1.33333" stroke-linecap="round" stroke-linejoin="round"/>
</g>
<defs>
<clipPath id="clip0_661_24189">
<rect width="19.5167" height="16.3129" fill="white" transform="translate(0.479156 0.649048)"/>
</clipPath>
</defs>
</svg>
