<svg xmlns="http://www.w3.org/2000/svg" width="24" height="24" viewBox="0 0 24 24" fill="none">
  <g clip-path="url(#clip0_1039_9459)">
    <path d="M23.9997 12C23.9997 5.37264 18.6271 0 11.9997 0C5.37236 0 -0.000274658 5.37264 -0.000274658 12C-0.000274658 17.6275 3.87429 22.3498 9.101 23.6467V15.6672H6.6266V12H9.101V10.4198C9.101 6.33552 10.9495 4.4424 14.9594 4.4424C15.7197 4.4424 17.0316 4.59168 17.5682 4.74048V8.06448C17.285 8.03472 16.793 8.01984 16.182 8.01984C14.2144 8.01984 13.4541 8.76528 13.4541 10.703V12H17.3738L16.7004 15.6672H13.4541V23.9122C19.396 23.1946 24.0002 18.1354 24.0002 12H23.9997Z" fill="#0866FF"/>
    <path d="M16.7003 15.6672L17.3737 12H13.454V10.703C13.454 8.76526 14.2143 8.01982 16.1819 8.01982C16.7929 8.01982 17.2849 8.0347 17.5681 8.06446V4.74046C17.0315 4.59118 15.7196 4.44238 14.9593 4.44238C10.9494 4.44238 9.1009 6.3355 9.1009 10.4198V12H6.6265V15.6672H9.1009V23.6467C10.0292 23.8771 11.0003 24 11.9996 24C12.4916 24 12.9769 23.9697 13.4535 23.9121V15.6672H16.6998H16.7003Z" fill="white"/>
  </g>
  <defs>
    <clipPath id="clip0_1039_9459">
      <rect width="24" height="24" fill="white"/>
    </clipPath>
  </defs>
</svg>