<svg width="20" height="20" viewBox="0 0 20 20" fill="none" xmlns="http://www.w3.org/2000/svg">
<g id="Frame" clip-path="url(#clip0_661_23791)">
<path id="Vector" d="M9.58331 17.4998H7.14498C6.54781 17.4998 5.97038 17.286 5.51717 16.8972C5.06396 16.5083 4.76492 15.9701 4.67415 15.3798L3.62831 8.5865C3.59179 8.34899 3.60705 8.10639 3.67307 7.87532C3.73908 7.64426 3.85428 7.43021 4.01077 7.24784C4.16726 7.06547 4.36133 6.9191 4.57968 6.81875C4.79804 6.71841 5.03551 6.66648 5.27581 6.6665H14.725C14.9653 6.66648 15.2028 6.71841 15.4211 6.81875C15.6395 6.9191 15.8335 7.06547 15.99 7.24784C16.1465 7.43021 16.2617 7.64426 16.3277 7.87532C16.3937 8.10639 16.409 8.34899 16.3725 8.5865L15.9558 11.2932" stroke="#5898FF" stroke-width="1.5" stroke-linecap="round" stroke-linejoin="round"/>
<path id="Vector_2" d="M7.5 9.16667V5C7.5 4.33696 7.76339 3.70107 8.23223 3.23223C8.70107 2.76339 9.33696 2.5 10 2.5C10.663 2.5 11.2989 2.76339 11.7678 3.23223C12.2366 3.70107 12.5 4.33696 12.5 5V9.16667" stroke="#5898FF" stroke-width="1.5" stroke-linecap="round" stroke-linejoin="round"/>
<path id="Vector_3" d="M12.5 15.8332L14.1667 17.4998L17.5 14.1665" stroke="#5898FF" stroke-width="1.5" stroke-linecap="round" stroke-linejoin="round"/>
</g>
<defs>
<clipPath id="clip0_661_23791">
<rect width="20" height="20" fill="white"/>
</clipPath>
</defs>
</svg>
