<svg xmlns="http://www.w3.org/2000/svg" width="24" height="24" viewBox="0 0 24 24" fill="none">
  <g clip-path="url(#clip0_1039_9470)">
    <path d="M11.9998 2.16094C15.2061 2.16094 15.5858 2.175 16.8467 2.23125C18.0186 2.28281 18.6514 2.47969 19.0733 2.64375C19.6311 2.85937 20.0342 3.12187 20.4514 3.53906C20.8733 3.96094 21.1311 4.35937 21.3467 4.91719C21.5108 5.33906 21.7076 5.97656 21.7592 7.14375C21.8154 8.40937 21.8295 8.78906 21.8295 11.9906C21.8295 15.1969 21.8154 15.5766 21.7592 16.8375C21.7076 18.0094 21.5108 18.6422 21.3467 19.0641C21.1311 19.6219 20.8686 20.025 20.4514 20.4422C20.0295 20.8641 19.6311 21.1219 19.0733 21.3375C18.6514 21.5016 18.0139 21.6984 16.8467 21.75C15.5811 21.8062 15.2014 21.8203 11.9998 21.8203C8.79357 21.8203 8.41388 21.8062 7.15294 21.75C5.98107 21.6984 5.34825 21.5016 4.92638 21.3375C4.36857 21.1219 3.96544 20.8594 3.54825 20.4422C3.12638 20.0203 2.86857 19.6219 2.65294 19.0641C2.48888 18.6422 2.292 18.0047 2.24044 16.8375C2.18419 15.5719 2.17013 15.1922 2.17013 11.9906C2.17013 8.78437 2.18419 8.40469 2.24044 7.14375C2.292 5.97187 2.48888 5.33906 2.65294 4.91719C2.86857 4.35937 3.13107 3.95625 3.54825 3.53906C3.97013 3.11719 4.36857 2.85937 4.92638 2.64375C5.34825 2.47969 5.98575 2.28281 7.15294 2.23125C8.41388 2.175 8.79357 2.16094 11.9998 2.16094ZM11.9998 0C8.742 0 8.33419 0.0140625 7.0545 0.0703125C5.7795 0.126562 4.90294 0.332812 4.14357 0.628125C3.35138 0.9375 2.68107 1.34531 2.01544 2.01562C1.34513 2.68125 0.937317 3.35156 0.627942 4.13906C0.332629 4.90312 0.126379 5.775 0.0701294 7.05C0.0138794 8.33437 -0.000183105 8.74219 -0.000183105 12C-0.000183105 15.2578 0.0138794 15.6656 0.0701294 16.9453C0.126379 18.2203 0.332629 19.0969 0.627942 19.8562C0.937317 20.6484 1.34513 21.3187 2.01544 21.9844C2.68107 22.65 3.35138 23.0625 4.13888 23.3672C4.90294 23.6625 5.77482 23.8687 7.04982 23.925C8.3295 23.9812 8.73732 23.9953 11.9951 23.9953C15.2529 23.9953 15.6608 23.9812 16.9404 23.925C18.2154 23.8687 19.092 23.6625 19.8514 23.3672C20.6389 23.0625 21.3092 22.65 21.9748 21.9844C22.6404 21.3187 23.0529 20.6484 23.3576 19.8609C23.6529 19.0969 23.8592 18.225 23.9154 16.95C23.9717 15.6703 23.9858 15.2625 23.9858 12.0047C23.9858 8.74687 23.9717 8.33906 23.9154 7.05937C23.8592 5.78437 23.6529 4.90781 23.3576 4.14844C23.0623 3.35156 22.6545 2.68125 21.9842 2.01562C21.3186 1.35 20.6483 0.9375 19.8608 0.632812C19.0967 0.3375 18.2248 0.13125 16.9498 0.075C15.6654 0.0140625 15.2576 0 11.9998 0Z" fill="#000100"/>
    <path d="M11.9995 5.83496C8.59639 5.83496 5.83545 8.5959 5.83545 11.999C5.83545 15.4021 8.59639 18.1631 11.9995 18.1631C15.4026 18.1631 18.1636 15.4021 18.1636 11.999C18.1636 8.5959 15.4026 5.83496 11.9995 5.83496ZM11.9995 15.9975C9.7917 15.9975 8.00107 14.2068 8.00107 11.999C8.00107 9.79121 9.7917 8.00059 11.9995 8.00059C14.2073 8.00059 15.9979 9.79121 15.9979 11.999C15.9979 14.2068 14.2073 15.9975 11.9995 15.9975Z" fill="#000100"/>
    <path d="M19.8465 5.59239C19.8465 6.38926 19.1997 7.03145 18.4075 7.03145C17.6106 7.03145 16.9684 6.38457 16.9684 5.59239C16.9684 4.79551 17.6153 4.15332 18.4075 4.15332C19.1997 4.15332 19.8465 4.8002 19.8465 5.59239Z" fill="#000100"/>
  </g>
  <defs>
    <clipPath id="clip0_1039_9470">
      <rect width="24" height="24" fill="white"/>
    </clipPath>
  </defs>
</svg>