<svg width="24" height="24" viewBox="0 0 24 24" fill="none" xmlns="http://www.w3.org/2000/svg">
<g id="Frame" clip-path="url(#clip0_661_24255)">
<path id="Vector" d="M9 15L15 9" stroke="#9298B5" stroke-width="1.5" stroke-linecap="round" stroke-linejoin="round"/>
<path id="Vector_2" d="M11 5.99996L11.463 5.46396C11.9273 4.99952 12.4786 4.63111 13.0853 4.37975C13.692 4.1284 14.3423 3.99902 14.999 3.99902C15.6557 3.99902 16.306 4.1284 16.9127 4.37975C17.5194 4.63111 18.0707 4.99952 18.535 5.46396C19.0002 5.92786 19.3693 6.47902 19.6211 7.08583C19.8729 7.69264 20.0024 8.34318 20.0023 9.00016C20.0022 9.65714 19.8725 10.3076 19.6205 10.9144C19.3686 11.5211 18.9993 12.0722 18.534 12.536" stroke="#9298B5" stroke-width="1.5" stroke-linecap="round" stroke-linejoin="round"/>
<path id="Vector_3" d="M12.603 18.534C11.654 19.4717 10.3736 19.9976 9.03949 19.9976C7.70536 19.9976 6.42499 19.4717 5.47599 18.534C5.00835 18.0716 4.63708 17.521 4.3837 16.9141C4.13032 16.3073 3.99985 15.6561 3.99985 14.9985C3.99985 14.3408 4.13032 13.6897 4.3837 13.0829C4.63708 12.476 5.00835 11.9254 5.47599 11.463L5.99999 11" stroke="#9298B5" stroke-width="1.5" stroke-linecap="round" stroke-linejoin="round"/>
<path id="Vector_4" d="M16 19H22" stroke="#9298B5" stroke-width="1.5" stroke-linecap="round" stroke-linejoin="round"/>
<path id="Vector_5" d="M16 19H22" stroke="#9298B5" stroke-width="1.5" stroke-linecap="round" stroke-linejoin="round"/>
<path id="Vector_6" d="M16 16H22" stroke="#9298B5" stroke-width="1.5" stroke-linecap="round" stroke-linejoin="round"/>
<path id="Vector_7" d="M22 22L16 22" stroke="#9298B5" stroke-width="1.5" stroke-linecap="round" stroke-linejoin="round"/>
</g>
<defs>
<clipPath id="clip0_661_24255">
<rect width="24" height="24" fill="white"/>
</clipPath>
</defs>
</svg>
