<svg width="25" height="24" viewBox="0 0 25 24" fill="none" xmlns="http://www.w3.org/2000/svg">
<g id="Frame" clip-path="url(#clip0_661_24266)">
<path id="Vector" d="M9.5 15L15.5 9" stroke="#001589" stroke-width="1.5" stroke-linecap="round" stroke-linejoin="round"/>
<path id="Vector_2" d="M11.5 5.99996L11.963 5.46396C12.4273 4.99952 12.9786 4.63111 13.5853 4.37975C14.192 4.1284 14.8423 3.99902 15.499 3.99902C16.1557 3.99902 16.806 4.1284 17.4127 4.37975C18.0194 4.63111 18.5707 4.99952 19.035 5.46396C19.5002 5.92786 19.8693 6.47902 20.1211 7.08583C20.3729 7.69264 20.5024 8.34318 20.5023 9.00016C20.5022 9.65714 20.3725 10.3076 20.1205 10.9144C19.8686 11.5211 19.4993 12.0722 19.034 12.536" stroke="#001589" stroke-width="1.5" stroke-linecap="round" stroke-linejoin="round"/>
<path id="Vector_3" d="M13.103 18.534C12.154 19.4717 10.8736 19.9976 9.53949 19.9976C8.20536 19.9976 6.92499 19.4717 5.97599 18.534C5.50835 18.0716 5.13708 17.521 4.8837 16.9141C4.63032 16.3073 4.49985 15.6561 4.49985 14.9985C4.49985 14.3408 4.63032 13.6897 4.8837 13.0829C5.13708 12.476 5.50835 11.9254 5.97599 11.463L6.49999 11" stroke="#001589" stroke-width="1.5" stroke-linecap="round" stroke-linejoin="round"/>
<path id="Vector_4" d="M16.5 19H22.5" stroke="#001589" stroke-width="1.5" stroke-linecap="round" stroke-linejoin="round"/>
<path id="Vector_5" d="M19.5 16V22" stroke="#001589" stroke-width="1.5" stroke-linecap="round" stroke-linejoin="round"/>
</g>
<defs>
<clipPath id="clip0_661_24266">
<rect width="24" height="24" fill="white" transform="translate(0.5)"/>
</clipPath>
</defs>
</svg>
