<svg width="20" height="20" viewBox="0 0 20 20" fill="none" xmlns="http://www.w3.org/2000/svg">
<g clip-path="url(#clip0_1089_1858)">
<path d="M10.4883 2.15484C10.1758 1.84225 9.75198 1.6666 9.30999 1.6665H3.33332C2.8913 1.6665 2.46737 1.8421 2.15481 2.15466C1.84225 2.46722 1.66666 2.89114 1.66666 3.33317V9.30984C1.66675 9.75183 1.84241 10.1757 2.15499 10.4882L9.40832 17.7415C9.78708 18.1179 10.2994 18.3291 10.8333 18.3291C11.3673 18.3291 11.8796 18.1179 12.2583 17.7415L17.7417 12.2582C18.118 11.8794 18.3293 11.3671 18.3293 10.8332C18.3293 10.2992 18.118 9.78693 17.7417 9.40817L10.4883 2.15484Z" stroke="#131D53" stroke-opacity="0.6" stroke-width="1.45833" stroke-linecap="round" stroke-linejoin="round"/>
<path d="M6.25001 6.66683C6.48013 6.66683 6.66668 6.48028 6.66668 6.25016C6.66668 6.02004 6.48013 5.8335 6.25001 5.8335C6.01989 5.8335 5.83334 6.02004 5.83334 6.25016C5.83334 6.48028 6.01989 6.66683 6.25001 6.66683Z" fill="#131D53" fill-opacity="0.6" stroke="#131D53" stroke-opacity="0.6" stroke-width="1.45833" stroke-linecap="round" stroke-linejoin="round"/>
</g>
<defs>
<clipPath id="clip0_1089_1858">
<rect width="20" height="20" fill="white"/>
</clipPath>
</defs>
</svg>
