<svg xmlns="http://www.w3.org/2000/svg" width="24" height="24" viewBox="0 0 24 24" fill="none">
  <g clip-path="url(#clip0_1039_9465)">
    <path d="M17.6919 11.1235C17.5885 11.074 17.4835 11.0263 17.3772 10.9806C17.1919 7.56727 15.3268 5.61312 12.195 5.59312C12.1808 5.59304 12.1667 5.59304 12.1525 5.59304C10.2793 5.59304 8.72142 6.39261 7.76254 7.84759L9.48491 9.0291C10.2012 7.94229 11.3254 7.7106 12.1534 7.7106C12.1629 7.7106 12.1725 7.7106 12.182 7.71069C13.2132 7.71726 13.9913 8.01707 14.4949 8.60175C14.8614 9.02741 15.1065 9.61562 15.2279 10.358C14.3137 10.2026 13.3249 10.1548 12.2679 10.2154C9.29037 10.3869 7.37617 12.1235 7.50474 14.5365C7.56997 15.7605 8.17975 16.8135 9.22166 17.5014C10.1026 18.0829 11.2372 18.3672 12.4163 18.3029C13.9735 18.2175 15.1952 17.6234 16.0474 16.537C16.6947 15.712 17.104 14.6429 17.2848 13.2957C18.0269 13.7436 18.5769 14.333 18.8807 15.0415C19.3972 16.2459 19.4273 18.225 17.8124 19.8385C16.3975 21.252 14.6968 21.8635 12.1265 21.8824C9.27531 21.8612 7.11901 20.9469 5.71705 19.1646C4.40422 17.4957 3.72575 15.0852 3.70044 12C3.72575 8.91472 4.40422 6.5042 5.71705 4.83534C7.11901 3.05311 9.27527 2.13875 12.1264 2.11756C14.9983 2.13891 17.1922 3.05767 18.6478 4.8485C19.3615 5.7267 19.8997 6.8311 20.2544 8.11879L22.2728 7.58027C21.8428 5.99527 21.1662 4.62946 20.2454 3.49675C18.3793 1.20083 15.65 0.0243935 12.1335 0H12.1194C8.60999 0.0243087 5.9113 1.20522 4.09832 3.50991C2.48502 5.5608 1.65284 8.41446 1.62487 11.9916L1.62479 12L1.62487 12.0084C1.65284 15.5855 2.48502 18.4392 4.09832 20.4901C5.9113 22.7947 8.60999 23.9757 12.1194 24H12.1335C15.2535 23.9784 17.4528 23.1615 19.2645 21.3514C21.6349 18.9832 21.5635 16.0149 20.7823 14.1926C20.2218 12.8859 19.1532 11.8245 17.6919 11.1235ZM12.3048 16.1884C10.9998 16.2619 9.64408 15.6761 9.57724 14.4215C9.52769 13.4912 10.2393 12.4532 12.3849 12.3296C12.6307 12.3154 12.8718 12.3085 13.1087 12.3085C13.888 12.3085 14.6172 12.3842 15.28 12.5291C15.0328 15.6169 13.5825 16.1182 12.3048 16.1884Z" fill="black"/>
  </g>
  <defs>
    <clipPath id="clip0_1039_9465">
      <rect width="24" height="24" fill="white"/>
    </clipPath>
  </defs>
</svg>