<svg xmlns="http://www.w3.org/2000/svg" width="24" height="24" viewBox="0 0 24 24" fill="none">
  <path d="M0.000217438 24L1.68722 17.837C0.646217 16.033 0.0992174 13.988 0.100217 11.891C0.103217 5.335 5.43822 0 11.9932 0C15.1742 0.001 18.1602 1.24 20.4062 3.488C22.6512 5.736 23.8872 8.724 23.8862 11.902C23.8832 18.459 18.5482 23.794 11.9932 23.794C10.0032 23.793 8.04222 23.294 6.30522 22.346L0.000217438 24ZM6.59722 20.193C8.27322 21.188 9.87321 21.784 11.9892 21.785C17.4372 21.785 21.8752 17.351 21.8782 11.9C21.8802 6.438 17.4632 2.01 11.9972 2.008C6.54522 2.008 2.11022 6.442 2.10822 11.892C2.10722 14.117 2.75922 15.783 3.85422 17.526L2.85522 21.174L6.59722 20.193ZM17.9842 14.729C17.9102 14.605 17.7122 14.531 17.4142 14.382C17.1172 14.233 15.6562 13.514 15.3832 13.415C15.1112 13.316 14.9132 13.266 14.7142 13.564C14.5162 13.861 13.9462 14.531 13.7732 14.729C13.6002 14.927 13.4262 14.952 13.1292 14.803C12.8322 14.654 11.8742 14.341 10.7392 13.328C9.85621 12.54 9.25921 11.567 9.08622 11.269C8.91321 10.972 9.06821 10.811 9.21622 10.663C9.35021 10.53 9.51322 10.316 9.66222 10.142C9.81322 9.97 9.86222 9.846 9.96222 9.647C10.0612 9.449 10.0122 9.275 9.93722 9.126C9.86222 8.978 9.26822 7.515 9.02122 6.92C8.77921 6.341 8.53422 6.419 8.35222 6.41L7.78222 6.4C7.58422 6.4 7.26222 6.474 6.99022 6.772C6.71822 7.07 5.95022 7.788 5.95022 9.251C5.95022 10.714 7.01522 12.127 7.16322 12.325C7.31222 12.523 9.25821 15.525 12.2392 16.812C12.9482 17.118 13.5022 17.301 13.9332 17.438C14.6452 17.664 15.2932 17.632 15.8052 17.556C16.3762 17.471 17.5632 16.837 17.8112 16.143C18.0592 15.448 18.0592 14.853 17.9842 14.729Z" fill="#25D366"/>
</svg>